<mxfile host="65bd71144e">
    <diagram id="hgEFVOqDZf9Uf-2Twxwt" name="第 1 页">
        <mxGraphModel dx="848" dy="476" grid="1" gridSize="10" guides="1" tooltips="1" connect="1" arrows="1" fold="1" page="1" pageScale="1" pageWidth="827" pageHeight="1169" math="0" shadow="0">
            <root>
                <mxCell id="0"/>
                <mxCell id="1" parent="0"/>
                <mxCell id="2" value="&lt;blockquote style=&quot;margin: 0 0 0 40px ; border: none ; padding: 0px&quot;&gt;&lt;pre style=&quot;font-size: 13px&quot;&gt;&lt;font style=&quot;font-size: 15px&quot; face=&quot;Verdana&quot;&gt;&lt;b&gt;&lt;font style=&quot;font-size: 15px&quot;&gt;JVM内存&lt;br&gt;&lt;/font&gt;String的内存布局&lt;/b&gt;&lt;/font&gt;&lt;/pre&gt;&lt;/blockquote&gt;" style="rounded=0;whiteSpace=wrap;html=1;fillColor=#6d8764;strokeColor=#3A5431;fontColor=#ffffff;align=center;verticalAlign=top;labelPosition=center;verticalLabelPosition=middle;horizontal=1;" parent="1" vertex="1">
                    <mxGeometry x="530.42" y="60" width="869.58" height="580" as="geometry"/>
                </mxCell>
                <mxCell id="3" value="main栈" style="rounded=0;whiteSpace=wrap;html=1;fontFamily=Verdana;fontSize=15;strokeColor=#543B27;fillColor=#B266FF;verticalAlign=top;align=left;fontColor=#ffffff;" parent="1" vertex="1">
                    <mxGeometry x="560" y="470" width="195" height="130" as="geometry"/>
                </mxCell>
                <mxCell id="4" value="s1 -&amp;gt; [0x99]" style="rounded=0;whiteSpace=wrap;html=1;fontFamily=Verdana;fontSize=16;strokeColor=#543B27;fillColor=#B266FF;align=left;spacingLeft=6;fontStyle=0" parent="1" vertex="1">
                    <mxGeometry x="567.5" y="555" width="180" height="29.25" as="geometry"/>
                </mxCell>
                <mxCell id="5" value="&lt;h2&gt;堆&lt;/h2&gt;" style="rounded=0;whiteSpace=wrap;html=1;fillColor=#647687;strokeColor=#0F0F0F;fontColor=#ffffff;align=center;labelPosition=center;verticalLabelPosition=middle;verticalAlign=top;" parent="1" vertex="1">
                    <mxGeometry x="790" y="120" width="590" height="270" as="geometry"/>
                </mxCell>
                <mxCell id="6" value="String 对象&lt;br&gt;0x11" style="rounded=0;whiteSpace=wrap;html=1;fontFamily=Verdana;fontSize=15;strokeColor=#006EAF;fillColor=#1ba1e2;verticalAlign=top;align=left;fontColor=#ffffff;" parent="1" vertex="1">
                    <mxGeometry x="810" y="150" width="170" height="170" as="geometry"/>
                </mxCell>
                <mxCell id="7" value="&lt;h2 style=&quot;font-size: 18px;&quot;&gt;方法区&lt;/h2&gt;" style="rounded=0;whiteSpace=wrap;html=1;fillColor=#647687;strokeColor=#0F0F0F;fontColor=#ffffff;align=center;labelPosition=center;verticalLabelPosition=middle;verticalAlign=top;fontSize=18;" parent="1" vertex="1">
                    <mxGeometry x="790" y="400" width="590" height="220" as="geometry"/>
                </mxCell>
                <mxCell id="8" value="常量池" style="rounded=0;whiteSpace=wrap;html=1;fontFamily=Verdana;fontSize=15;strokeColor=#2D7600;fillColor=#60a917;verticalAlign=top;align=center;fontColor=#ffffff;" parent="1" vertex="1">
                    <mxGeometry x="800" y="450" width="170" height="100" as="geometry"/>
                </mxCell>
                <mxCell id="9" value="&quot;abc&quot; : 0x99" style="rounded=0;whiteSpace=wrap;html=1;fontFamily=Verdana;fontSize=15;strokeColor=#543B27;fillColor=#B266FF;align=left;" parent="1" vertex="1">
                    <mxGeometry x="812.5" y="494.5" width="145" height="27" as="geometry"/>
                </mxCell>
                <mxCell id="20" value="value -&amp;gt; [0x22]" style="rounded=0;whiteSpace=wrap;html=1;fontFamily=Verdana;fontSize=15;strokeColor=#BD7000;fillColor=#f0a30a;align=left;fontColor=#FFFFFF;" parent="1" vertex="1">
                    <mxGeometry x="822.5" y="220" width="145" height="50" as="geometry"/>
                </mxCell>
                <mxCell id="39" value="&lt;div style=&quot;color: rgb(171 , 178 , 191) ; background-color: rgb(40 , 44 , 52) ; font-family: &amp;#34;cn regular&amp;#34; , &amp;#34;consolas&amp;#34; , &amp;#34;courier new&amp;#34; , monospace , &amp;#34;consolas&amp;#34; , &amp;#34;courier new&amp;#34; , monospace ; font-weight: normal ; font-size: 23px ; line-height: 24px&quot;&gt;&lt;div&gt;&lt;span style=&quot;color: #e5c07b&quot;&gt;&lt;br&gt;&lt;/span&gt;&lt;/div&gt;&lt;div&gt;&lt;span style=&quot;color: #e5c07b&quot;&gt;&amp;nbsp;String&lt;/span&gt;&lt;span style=&quot;color: #abb2bf&quot;&gt; &lt;/span&gt;&lt;span style=&quot;color: #e06c75&quot;&gt;s1&lt;/span&gt;&lt;span style=&quot;color: #abb2bf&quot;&gt; &lt;/span&gt;&lt;span style=&quot;color: #56b6c2&quot;&gt;=&lt;/span&gt;&lt;span style=&quot;color: #abb2bf&quot;&gt; &lt;/span&gt;&lt;span style=&quot;color: #98c379&quot;&gt;&quot;abc&quot;&lt;/span&gt;&lt;span style=&quot;color: #abb2bf&quot;&gt;;&lt;/span&gt;&lt;/div&gt;&lt;div&gt;&lt;span style=&quot;color: #e5c07b&quot;&gt;&amp;nbsp;String&lt;/span&gt;&lt;span style=&quot;color: #abb2bf&quot;&gt; &lt;/span&gt;&lt;span style=&quot;color: #e06c75&quot;&gt;s2&lt;/span&gt;&lt;span style=&quot;color: #abb2bf&quot;&gt; &lt;/span&gt;&lt;span style=&quot;color: #56b6c2&quot;&gt;=&lt;/span&gt;&lt;span style=&quot;color: #abb2bf&quot;&gt; &lt;/span&gt;&lt;span style=&quot;color: #c678dd&quot;&gt;new&lt;/span&gt;&lt;span style=&quot;color: #abb2bf&quot;&gt; &lt;/span&gt;&lt;span style=&quot;color: #61afef&quot;&gt;String&lt;/span&gt;&lt;span style=&quot;color: #abb2bf&quot;&gt;(&lt;/span&gt;&lt;span style=&quot;color: #98c379&quot;&gt;&quot;abc&quot;&lt;/span&gt;&lt;span style=&quot;color: #abb2bf&quot;&gt;);&lt;/span&gt;&lt;/div&gt;&lt;br&gt;&lt;div&gt;&lt;span style=&quot;color: #abb2bf&quot;&gt;&lt;/span&gt;&lt;/div&gt;&lt;/div&gt;" style="text;whiteSpace=wrap;html=1;fontSize=24;fontFamily=Verdana;fontColor=default;" parent="1" vertex="1">
                    <mxGeometry x="1000" y="170" width="400" height="100" as="geometry"/>
                </mxCell>
                <mxCell id="40" style="edgeStyle=orthogonalEdgeStyle;html=1;exitX=1;exitY=0.5;exitDx=0;exitDy=0;entryX=0;entryY=0.5;entryDx=0;entryDy=0;fontFamily=Verdana;fontSize=19;fontColor=default;curved=1;strokeWidth=3;strokeColor=#FFB366;" parent="1" source="4" target="9" edge="1">
                    <mxGeometry relative="1" as="geometry"/>
                </mxCell>
                <mxCell id="42" style="edgeStyle=orthogonalEdgeStyle;curved=1;html=1;fontFamily=Verdana;fontSize=19;fontColor=default;strokeColor=#FFB366;strokeWidth=3;" parent="1" source="20" target="9" edge="1">
                    <mxGeometry relative="1" as="geometry">
                        <Array as="points">
                            <mxPoint x="1030" y="255"/>
                            <mxPoint x="1030" y="510"/>
                        </Array>
                        <mxPoint x="960" y="510" as="targetPoint"/>
                    </mxGeometry>
                </mxCell>
                <mxCell id="44" style="edgeStyle=orthogonalEdgeStyle;curved=1;html=1;entryX=0;entryY=0.25;entryDx=0;entryDy=0;fontFamily=Verdana;fontSize=16;fontColor=default;strokeColor=#FFB366;strokeWidth=3;" parent="1" source="43" target="6" edge="1">
                    <mxGeometry relative="1" as="geometry"/>
                </mxCell>
                <mxCell id="43" value="s2 -&amp;gt; [0x11]" style="rounded=0;whiteSpace=wrap;html=1;fontFamily=Verdana;fontSize=16;strokeColor=#543B27;fillColor=#B266FF;align=left;spacingLeft=6;fontStyle=0" parent="1" vertex="1">
                    <mxGeometry x="567.5" y="510.38" width="180" height="29.25" as="geometry"/>
                </mxCell>
            </root>
        </mxGraphModel>
    </diagram>
</mxfile>